<?xml version="1.0" standalone="no"?>
<!DOCTYPE svg PUBLIC "-//W3C//DTD SVG 20010904//EN"
 "http://www.w3.org/TR/2001/REC-SVG-20010904/DTD/svg10.dtd">
<svg version="1.0" xmlns="http://www.w3.org/2000/svg"
 width="1170.000000pt" height="2532.000000pt" viewBox="0 0 1170.000000 2532.000000"
 preserveAspectRatio="xMidYMid meet">

<g transform="translate(0.000000,2532.000000) scale(0.100000,-0.100000)"
fill="#000000" stroke="none">
<path d="M6505 23948 c-3 -7 -4 -213 -3 -458 l3 -445 50 0 50 0 3 458 2 457
-50 0 c-31 0 -52 -5 -55 -12z"/>
<path d="M6815 23948 c-3 -7 -4 -213 -3 -458 l3 -445 50 0 50 0 5 121 5 121
34 29 c33 28 34 28 47 9 7 -11 57 -78 111 -150 l98 -130 49 -3 c27 -2 55 -1
63 2 10 4 -24 57 -123 186 -122 161 -135 182 -123 197 8 10 65 72 128 138
l113 120 -57 3 c-68 4 -57 12 -223 -168 -63 -69 -118 -126 -121 -128 -3 -1 -6
125 -6 280 l0 283 -48 3 c-32 2 -49 -1 -52 -10z"/>
<path d="M8202 23503 l3 -458 50 0 50 0 0 455 0 455 -53 3 -52 3 2 -458z"/>
<path d="M5095 23887 c-3 -6 -4 -199 -3 -427 l3 -415 34 -3 c19 -2 43 -1 55 2
20 5 21 9 18 166 l-3 160 43 40 c24 22 45 40 48 40 3 -1 74 -93 157 -205 l153
-205 54 0 c30 0 57 3 59 8 3 4 -73 114 -169 244 l-174 238 122 132 c67 73 144
157 172 186 l50 52 -66 0 -67 0 -182 -202 c-100 -112 -186 -204 -190 -206 -5
-2 -9 89 -9 202 l0 206 -50 0 c-31 0 -52 -5 -55 -13z"/>
<path d="M9237 23833 c-2 -5 -12 -36 -22 -71 -18 -60 -21 -64 -67 -84 -38 -16
-48 -25 -48 -44 0 -20 5 -23 46 -26 l46 -3 -1 -185 c-2 -262 12 -319 89 -364
35 -20 132 -28 183 -13 23 6 27 12 27 46 l0 40 -53 -6 c-71 -7 -112 13 -127
65 -7 23 -10 110 -8 227 l3 190 93 3 92 3 0 39 0 40 -95 0 -95 0 0 75 0 75
-29 0 c-17 0 -32 -3 -34 -7z"/>
<path d="M5970 23689 c-43 -12 -120 -41 -120 -44 0 -12 32 -75 38 -75 4 0 32
9 62 21 42 16 71 20 124 17 59 -3 71 -7 92 -31 23 -27 41 -104 30 -132 -4 -12
-23 -15 -83 -15 -162 -1 -279 -47 -314 -123 -37 -82 -14 -191 50 -236 46 -33
133 -46 205 -31 45 9 69 21 102 52 25 23 46 39 48 37 2 -2 7 -22 13 -44 8 -37
11 -40 43 -40 l35 0 3 255 c2 248 2 256 -20 300 -33 65 -88 93 -193 97 -44 1
-96 -2 -115 -8z m223 -396 c-3 -107 -54 -160 -161 -170 -43 -4 -67 -1 -91 11
-72 38 -66 152 10 192 35 18 132 33 199 30 l45 -1 -2 -62z"/>
<path d="M8662 23691 c-49 -13 -122 -42 -122 -49 0 -14 25 -72 30 -72 4 0 33
9 65 20 33 11 84 20 118 20 54 0 62 -3 93 -34 31 -31 34 -40 34 -90 l0 -56
-77 0 c-159 -1 -272 -43 -316 -118 -22 -37 -25 -137 -6 -175 39 -75 127 -115
228 -102 64 8 96 23 145 65 l34 30 14 -42 c12 -40 16 -43 48 -43 l35 0 3 230
c3 267 -4 318 -51 362 -18 17 -43 36 -56 43 -30 15 -174 22 -219 11z m216
-401 c-4 -82 -23 -114 -89 -148 -63 -33 -152 -28 -186 12 -46 54 -22 151 46
178 31 12 117 25 185 27 l48 1 -4 -70z"/>
<path d="M9777 23684 c-31 -9 -65 -32 -96 -62 -65 -63 -92 -135 -92 -249 0
-116 21 -181 83 -248 62 -68 116 -90 219 -90 185 1 293 127 291 340 -1 140
-57 244 -158 294 -61 31 -176 38 -247 15z m220 -111 c57 -45 76 -105 71 -223
-5 -120 -30 -173 -98 -207 -89 -46 -194 -16 -240 67 -19 36 -25 63 -28 136 -5
107 13 176 56 217 39 38 69 47 139 44 52 -2 68 -8 100 -34z"/>
<path d="M10560 23674 c-25 -14 -59 -42 -76 -62 l-31 -36 -7 57 -7 57 -45 0
-44 0 2 -322 3 -323 50 0 50 0 5 210 c5 228 9 243 67 296 43 40 66 49 131 49
l59 0 6 42 c3 23 3 46 1 50 -3 4 -31 8 -62 8 -42 0 -69 -7 -102 -26z"/>
<path d="M7450 23446 c0 -251 4 -284 43 -340 62 -89 288 -96 367 -11 30 32 40
31 40 -4 0 -37 20 -53 62 -49 l33 3 3 323 2 322 -55 0 -55 0 0 -198 c0 -232
-10 -282 -65 -330 -62 -55 -179 -55 -231 -1 l-29 30 -3 250 -3 249 -54 0 -55
0 0 -244z"/>
</g>
</svg>
